<svg xmlns="http://www.w3.org/2000/svg" width="375" viewBox="0 0 375 375" height="375" version="1.0"><defs><clipPath id="a"><path d="M 174.265625 175 L 200.515625 175 L 200.515625 201 L 174.265625 201 Z M 174.265625 175"/></clipPath></defs><path fill="#FFF" d="M-37.5 -37.5H412.5V412.5H-37.5z"/><path fill="#FFF" d="M-37.5 -37.5H412.5V412.5H-37.5z"/><path fill="#FFF" d="M-37.5 -37.5H412.5V412.5H-37.5z"/><path fill="#FFF" d="M 209.488281 107.734375 C 175.523438 107.734375 147.988281 135.269531 147.988281 169.234375 C 147.988281 203.199219 175.523438 230.734375 209.488281 230.734375 C 243.453125 230.734375 270.988281 203.199219 270.988281 169.234375 C 270.988281 135.269531 243.453125 107.734375 209.488281 107.734375"/><path fill="#EB5E2C" d="M 150.019531 151.917969 C 158.75 143.179688 169.839844 138.210938 181.257812 136.964844 C 170.839844 130.75 160.269531 122.574219 150.316406 112.609375 C 133.085938 95.367188 121.046875 76.234375 115.527344 59.3125 C 115.519531 59.324219 115.519531 59.332031 115.511719 59.347656 C 113.414062 52.8125 109.804688 46.65625 104.613281 41.46875 C 87.167969 24.003906 58.871094 24.003906 41.421875 41.46875 C 23.972656 58.933594 23.972656 87.253906 41.421875 104.714844 C 46.632812 109.933594 52.828125 113.5625 59.402344 115.660156 C 75.554688 121.574219 93.425781 133.125 109.644531 149.363281 C 119.621094 159.347656 127.792969 169.964844 134.03125 180.421875 C 135.222656 177.867188 136.335938 175.328125 137.257812 172.808594 C 139.847656 164.835938 144.128906 157.804688 150.019531 151.917969 Z M 57.988281 86.152344 C 50.234375 78.390625 50.234375 65.792969 57.988281 58.03125 C 65.746094 50.265625 78.332031 50.265625 86.089844 58.03125 C 93.847656 65.792969 93.847656 78.390625 86.089844 86.152344 C 78.332031 93.925781 65.746094 93.925781 57.988281 86.152344 Z M 57.988281 86.152344"/><path fill="#29D770" d="M 147.460938 266.238281 C 164.691406 248.992188 183.804688 236.945312 200.714844 231.421875 C 200.699219 231.414062 200.695312 231.414062 200.679688 231.40625 C 207.207031 229.304688 213.359375 225.695312 218.542969 220.507812 C 235.992188 203.042969 235.992188 174.722656 218.542969 157.257812 C 201.09375 139.796875 172.796875 139.796875 155.347656 157.257812 C 150.136719 162.476562 146.507812 168.675781 144.414062 175.253906 C 138.503906 191.421875 126.964844 209.308594 110.738281 225.542969 C 93.507812 242.785156 74.390625 254.835938 57.480469 260.359375 C 57.496094 260.367188 57.503906 260.367188 57.515625 260.375 C 50.988281 262.476562 44.835938 266.085938 39.652344 271.273438 C 22.203125 288.738281 22.203125 317.058594 39.652344 334.523438 C 57.101562 351.984375 85.398438 351.984375 102.847656 334.523438 C 108.0625 329.304688 111.683594 323.105469 113.78125 316.527344 C 119.6875 300.359375 131.230469 282.480469 147.460938 266.238281 Z M 201.449219 173.484375 C 209.207031 181.25 209.207031 193.84375 201.449219 201.609375 C 193.691406 209.375 181.105469 209.375 173.347656 201.609375 C 165.59375 193.84375 165.59375 181.25 173.347656 173.484375 C 181.105469 165.722656 193.691406 165.722656 201.449219 173.484375 Z M 57.320312 317.734375 C 49.5625 309.972656 49.5625 297.375 57.320312 289.609375 C 65.078125 281.847656 77.664062 281.847656 85.421875 289.609375 C 93.179688 297.375 93.179688 309.972656 85.421875 317.734375 C 77.664062 325.5 65.085938 325.5 57.320312 317.734375 Z M 57.320312 317.734375"/><path fill="#EB5E2C" d="M 224.980469 223.078125 C 216.246094 231.820312 205.160156 236.789062 193.738281 238.03125 C 204.15625 244.246094 214.726562 252.425781 224.679688 262.386719 C 241.910156 279.632812 253.953125 298.761719 259.46875 315.6875 C 259.476562 315.671875 259.476562 315.664062 259.484375 315.652344 C 261.585938 322.183594 265.191406 328.339844 270.382812 333.527344 C 287.832031 350.992188 316.128906 350.992188 333.578125 333.527344 C 351.027344 316.066406 351.027344 287.746094 333.578125 270.28125 C 328.363281 265.066406 322.167969 261.433594 315.597656 259.339844 C 299.441406 253.421875 281.570312 241.875 265.351562 225.632812 C 255.375 215.648438 247.203125 205.035156 240.964844 194.578125 C 239.773438 197.132812 238.660156 199.671875 237.738281 202.1875 C 235.148438 210.164062 230.867188 217.191406 224.980469 223.078125 Z M 317.007812 288.84375 C 324.765625 296.609375 324.765625 309.203125 317.007812 316.96875 C 309.25 324.730469 296.664062 324.730469 288.90625 316.96875 C 281.148438 309.203125 281.148438 296.609375 288.90625 288.84375 C 296.664062 281.074219 309.25 281.074219 317.007812 288.84375 Z M 317.007812 288.84375"/><path fill="#29D770" d="M 227.539062 108.757812 C 210.308594 126.003906 191.191406 138.054688 174.28125 143.578125 C 174.296875 143.582031 174.304688 143.582031 174.320312 143.589844 C 167.789062 145.695312 161.640625 149.304688 156.457031 154.492188 C 139.007812 171.953125 139.007812 200.273438 156.457031 217.738281 C 173.902344 235.203125 202.199219 235.203125 219.648438 217.738281 C 224.863281 212.519531 228.492188 206.320312 230.585938 199.742188 C 236.496094 183.574219 248.03125 165.691406 264.261719 149.457031 C 281.492188 132.210938 300.605469 120.160156 317.515625 114.636719 C 317.5 114.628906 317.496094 114.628906 317.480469 114.625 C 324.007812 112.519531 330.160156 108.910156 335.34375 103.722656 C 352.792969 86.261719 352.792969 57.941406 335.34375 40.476562 C 317.894531 23.011719 289.597656 23.011719 272.148438 40.476562 C 266.9375 45.695312 263.316406 51.894531 261.214844 58.472656 C 255.3125 74.640625 243.765625 92.515625 227.539062 108.757812 Z M 173.546875 201.511719 C 165.789062 193.746094 165.789062 181.152344 173.546875 173.386719 C 181.304688 165.625 193.890625 165.625 201.648438 173.386719 C 209.40625 181.152344 209.40625 193.746094 201.648438 201.511719 C 193.890625 209.277344 181.304688 209.277344 173.546875 201.511719 Z M 317.675781 57.261719 C 325.433594 65.027344 325.433594 77.621094 317.675781 85.386719 C 309.917969 93.152344 297.332031 93.152344 289.578125 85.386719 C 281.820312 77.621094 281.820312 65.027344 289.578125 57.261719 C 297.332031 49.5 309.910156 49.5 317.675781 57.261719 Z M 317.675781 57.261719"/><g clip-path="url(#a)"><path fill="#050400" d="M 177.675781 187.007812 L 177.632812 188.257812 C 177.644531 189.019531 177.125 189.789062 176.414062 190.054688 L 175.742188 190.308594 C 174.761719 190.675781 174.265625 191.769531 174.636719 192.75 C 175.003906 193.730469 176.097656 194.226562 177.078125 193.855469 L 177.746094 193.605469 C 178.457031 193.339844 179.355469 193.578125 179.847656 194.15625 L 180.707031 195.070312 C 181.253906 195.597656 181.429688 196.511719 181.113281 197.203125 L 180.820312 197.855469 C 180.386719 198.808594 180.808594 199.933594 181.765625 200.367188 C 182.71875 200.800781 183.839844 200.375 184.273438 199.421875 L 184.570312 198.769531 C 184.765625 198.339844 185.171875 197.96875 185.65625 197.789062 C 185.914062 197.691406 186.1875 197.652344 186.445312 197.671875 L 187.699219 197.714844 C 188.457031 197.703125 189.230469 198.222656 189.492188 198.9375 L 189.746094 199.605469 C 190.117188 200.585938 191.210938 201.082031 192.1875 200.710938 C 193.167969 200.34375 193.664062 199.25 193.296875 198.269531 L 193.046875 197.601562 C 192.777344 196.886719 193.011719 195.988281 193.59375 195.496094 L 194.507812 194.640625 C 194.6875 194.457031 194.917969 194.304688 195.179688 194.207031 C 195.664062 194.027344 196.210938 194.035156 196.640625 194.234375 L 197.296875 194.53125 C 198.25 194.960938 199.371094 194.539062 199.804688 193.585938 C 200.238281 192.628906 199.816406 191.503906 198.859375 191.074219 L 198.210938 190.777344 C 197.515625 190.464844 197.046875 189.660156 197.113281 188.902344 L 197.15625 187.648438 C 197.140625 186.886719 197.660156 186.121094 198.375 185.851562 L 199.042969 185.601562 C 200.023438 185.230469 200.519531 184.136719 200.152344 183.15625 C 199.78125 182.175781 198.6875 181.683594 197.707031 182.050781 L 197.039062 182.300781 C 196.328125 182.570312 195.429688 182.332031 194.9375 181.753906 L 194.082031 180.839844 C 193.53125 180.308594 193.355469 179.398438 193.667969 178.703125 L 193.964844 178.054688 C 194.398438 177.097656 193.976562 175.972656 193.023438 175.542969 C 192.066406 175.109375 190.945312 175.53125 190.511719 176.488281 L 190.214844 177.136719 C 190.019531 177.570312 189.613281 177.9375 189.128906 178.121094 C 188.871094 178.21875 188.597656 178.257812 188.339844 178.238281 L 187.089844 178.195312 C 186.328125 178.203125 185.558594 177.6875 185.289062 176.972656 L 185.039062 176.308594 C 184.671875 175.328125 183.578125 174.828125 182.597656 175.199219 C 181.617188 175.566406 181.121094 176.660156 181.488281 177.640625 L 181.738281 178.308594 C 182.003906 179.019531 181.769531 179.917969 181.191406 180.410156 L 180.277344 181.269531 C 180.09375 181.453125 179.867188 181.601562 179.605469 181.699219 C 179.121094 181.882812 178.574219 181.871094 178.140625 181.675781 L 177.488281 181.378906 C 176.535156 180.949219 175.410156 181.371094 174.976562 182.324219 C 174.546875 183.277344 174.96875 184.402344 175.921875 184.835938 L 176.574219 185.128906 C 177.269531 185.445312 177.734375 186.246094 177.675781 187.007812 Z M 179.398438 187.953125 C 179.398438 187.1875 179.507812 186.445312 179.710938 185.742188 L 180.796875 186.230469 C 181.222656 186.425781 181.503906 186.914062 181.464844 187.378906 L 181.441406 188.136719 C 181.449219 188.601562 181.132812 189.070312 180.699219 189.234375 L 179.582031 189.652344 C 179.464844 189.105469 179.398438 188.539062 179.398438 187.953125 Z M 180.394531 191.820312 L 181.511719 191.402344 C 181.945312 191.238281 182.492188 191.382812 182.792969 191.734375 L 183.316406 192.292969 C 183.648438 192.617188 183.757812 193.171875 183.566406 193.59375 L 183.074219 194.679688 C 181.960938 193.960938 181.039062 192.980469 180.394531 191.820312 Z M 182.527344 187.640625 C 182.679688 185.214844 184.65625 183.238281 187.082031 183.089844 C 189.914062 182.910156 192.265625 185.15625 192.265625 187.953125 C 192.265625 190.644531 190.085938 192.828125 187.394531 192.828125 C 184.597656 192.828125 182.351562 190.476562 182.527344 187.640625 Z M 187.390625 195.945312 C 186.625 195.945312 185.882812 195.835938 185.179688 195.632812 L 185.671875 194.550781 C 185.792969 194.285156 186.039062 194.0625 186.332031 193.949219 C 186.492188 193.890625 186.65625 193.867188 186.816406 193.878906 L 187.578125 193.90625 C 188.042969 193.898438 188.511719 194.214844 188.675781 194.648438 L 189.09375 195.765625 C 188.546875 195.882812 187.976562 195.945312 187.390625 195.945312 Z M 191.257812 194.949219 L 190.839844 193.835938 C 190.675781 193.402344 190.820312 192.855469 191.175781 192.554688 L 191.730469 192.03125 C 191.839844 191.917969 191.984375 191.828125 192.140625 191.765625 C 192.4375 191.65625 192.769531 191.660156 193.03125 191.78125 L 194.117188 192.273438 C 193.402344 193.386719 192.417969 194.308594 191.257812 194.949219 Z M 195.386719 187.953125 C 195.386719 188.722656 195.277344 189.464844 195.074219 190.167969 L 193.988281 189.675781 C 193.566406 189.484375 193.28125 188.996094 193.320312 188.53125 L 193.347656 187.769531 C 193.335938 187.304688 193.65625 186.835938 194.089844 186.671875 L 195.203125 186.253906 C 195.324219 186.800781 195.386719 187.371094 195.386719 187.953125 Z M 194.390625 184.085938 L 193.273438 184.507812 C 192.839844 184.671875 192.292969 184.527344 191.992188 184.171875 L 191.472656 183.617188 C 191.136719 183.292969 191.03125 182.734375 191.21875 182.3125 L 191.710938 181.230469 C 192.824219 181.945312 193.746094 182.929688 194.390625 184.085938 Z M 187.394531 179.960938 C 188.160156 179.960938 188.902344 180.070312 189.605469 180.273438 L 189.113281 181.359375 C 188.996094 181.625 188.746094 181.847656 188.453125 181.957031 C 188.292969 182.015625 188.128906 182.039062 187.972656 182.027344 L 187.207031 182.003906 C 186.742188 182.007812 186.273438 181.691406 186.113281 181.257812 L 185.695312 180.140625 C 186.242188 180.023438 186.808594 179.960938 187.394531 179.960938 Z M 183.527344 180.957031 L 183.945312 182.070312 C 184.109375 182.507812 183.964844 183.054688 183.613281 183.355469 L 183.054688 183.875 C 182.945312 183.988281 182.804688 184.082031 182.644531 184.140625 C 182.351562 184.25 182.019531 184.246094 181.753906 184.125 L 180.667969 183.632812 C 181.382812 182.523438 182.367188 181.597656 183.527344 180.957031 Z M 183.558594 189.390625 C 184.15625 190.980469 185.699219 192.050781 187.394531 192.050781 C 187.882812 192.050781 188.371094 191.960938 188.835938 191.785156 C 189.859375 191.402344 190.671875 190.640625 191.125 189.644531 C 191.574219 188.648438 191.609375 187.535156 191.226562 186.515625 C 190.628906 184.925781 189.089844 183.855469 187.390625 183.855469 C 186.902344 183.855469 186.417969 183.945312 185.953125 184.121094 C 184.925781 184.503906 184.113281 185.265625 183.664062 186.261719 C 183.210938 187.257812 183.175781 188.371094 183.558594 189.390625 Z M 184.359375 186.578125 C 184.726562 185.769531 185.386719 185.148438 186.222656 184.835938 C 186.597656 184.691406 186.992188 184.621094 187.390625 184.621094 C 188.773438 184.621094 190.023438 185.488281 190.511719 186.78125 C 190.824219 187.617188 190.796875 188.519531 190.425781 189.332031 C 190.058594 190.140625 189.398438 190.757812 188.566406 191.074219 C 188.1875 191.214844 187.792969 191.285156 187.394531 191.285156 C 186.015625 191.285156 184.761719 190.417969 184.273438 189.125 C 183.960938 188.292969 183.992188 187.386719 184.359375 186.578125 Z M 184.945312 188.875 C 184.699219 188.21875 184.71875 187.507812 185.007812 186.875 C 185.296875 186.238281 185.816406 185.75 186.472656 185.503906 C 186.769531 185.394531 187.078125 185.335938 187.390625 185.335938 C 188.476562 185.335938 189.460938 186.019531 189.84375 187.035156 C 190.085938 187.6875 190.0625 188.398438 189.777344 189.035156 C 189.488281 189.671875 188.96875 190.15625 188.316406 190.402344 C 188.015625 190.515625 187.707031 190.574219 187.394531 190.574219 C 186.308594 190.574219 185.324219 189.890625 184.945312 188.875 Z M 184.945312 188.875"/></g></svg>